<svg width="36" height="64" viewBox="0 0 36 64" fill="none" xmlns="http://www.w3.org/2000/svg">
<rect x="1" y="1" width="34" height="62" rx="17" stroke="currentColor" strokeWidth="2"/>
<path d="M23.4351 38.6782C23.4899 38.7348 23.5334 38.802 23.563 38.876C23.5927 38.95 23.6079 39.0293 23.6079 39.1094C23.6079 39.1895 23.5927 39.2688 23.563 39.3427C23.5334 39.4167 23.4899 39.4839 23.4351 39.5405L18.7208 44.4155C18.6661 44.4722 18.6011 44.5171 18.5296 44.5478C18.458 44.5784 18.3813 44.5942 18.3039 44.5942C18.2265 44.5942 18.1498 44.5784 18.0782 44.5478C18.0067 44.5171 17.9417 44.4722 17.887 44.4155L13.1727 39.5405C13.0621 39.4262 13 39.2711 13 39.1094C13 38.9477 13.0621 38.7926 13.1727 38.6782C13.2833 38.5639 13.4332 38.4997 13.5896 38.4997C13.746 38.4997 13.896 38.5639 14.0065 38.6782L17.7146 42.5127V19.6094C17.7146 19.4478 17.7767 19.2928 17.8872 19.1785C17.9977 19.0642 18.1476 19 18.3039 19C18.4602 19 18.6101 19.0642 18.7206 19.1785C18.8311 19.2928 18.8932 19.4478 18.8932 19.6094V42.5127L22.6013 38.6782C22.656 38.6216 22.721 38.5766 22.7925 38.546C22.8641 38.5153 22.9407 38.4995 23.0182 38.4995C23.0956 38.4995 23.1723 38.5153 23.2438 38.546C23.3154 38.5766 23.3804 38.6216 23.4351 38.6782Z" fill="currentColor" stroke="currentColor"/>
</svg>
